<svg xmlns="http://www.w3.org/2000/svg" fill="none" viewBox="0 0 120 121" class="w-[120px] h-[120px] shrink-0"><path fill="url(#fast_svg__a)" d="M63.66 13.218c22.251 7.935 37.792 62.865 26.67 79.987-11.122 17.122-70.502-.364-80.767-14.935C-.702 63.7 41.409 5.28 63.659 13.218Z" opacity="0.15"></path><path fill="url(#fast_svg__b)" d="M39.072 23.236C59.619 18.349 98.02 51.962 98.02 70.214c0 18.253-53.033 34.061-67.825 28.137-14.791-5.924-11.67-70.227 8.877-75.115Z"></path><path fill="#fff" d="M69.117 59.09a1.666 1.666 0 0 0-1.45-1h-7.634l2.117-7.9a1.668 1.668 0 0 0-.283-1.45 1.668 1.668 0 0 0-1.317-.65H48.884a1.667 1.667 0 0 0-1.667 1.233L42.75 65.989a1.667 1.667 0 0 0 .283 1.45 1.667 1.667 0 0 0 1.334.65h6.45L47.8 79.323a1.667 1.667 0 0 0 2.85 1.55l18.167-20a1.667 1.667 0 0 0 .3-1.784ZM52.8 73.555l1.784-6.667a1.666 1.666 0 0 0-.284-1.45 1.666 1.666 0 0 0-1.316-.65h-6.4l3.566-13.366h8.217l-2.117 7.9a1.666 1.666 0 0 0 1.667 2.1h5.95L52.8 73.556Z"></path><defs><linearGradient id="fast_svg__a" x1="83.124" x2="36.29" y1="25.221" y2="97.32" gradientUnits="userSpaceOnUse"><stop stop-color="#C8B933"></stop><stop offset="1" stop-color="#D29C11"></stop></linearGradient><linearGradient id="fast_svg__b" x1="59.51" x2="59.51" y1="99.616" y2="-7.988" gradientUnits="userSpaceOnUse"><stop stop-color="#E65C00"></stop><stop offset="1" stop-color="#F9D423"></stop></linearGradient></defs></svg>