<svg xmlns="http://www.w3.org/2000/svg" fill="black" viewBox="0 0 14 15"
    class="transition-colors duration-300 fill-white" width="14" height="14">
    <g clip-path="url(#uCalendarAlt_svg__a)">
        <path
            d="M7 11.153a.583.583 0 1 0 0-1.166.583.583 0 0 0 0 1.166Zm2.917 0a.583.583 0 1 0 0-1.167.583.583 0 0 0 0 1.167Zm0-2.333a.583.583 0 1 0 0-1.167.583.583 0 0 0 0 1.167ZM7 8.82a.583.583 0 1 0 0-1.167.583.583 0 0 0 0 1.167Zm4.084-7H10.5v-.583a.583.583 0 1 0-1.166 0v.583H4.667v-.583a.583.583 0 0 0-1.167 0v.583h-.583a1.75 1.75 0 0 0-1.75 1.75v8.167a1.75 1.75 0 0 0 1.75 1.75h8.167a1.75 1.75 0 0 0 1.75-1.75V3.57a1.75 1.75 0 0 0-1.75-1.75Zm.583 9.917a.583.583 0 0 1-.583.583H2.917a.583.583 0 0 1-.583-.583v-5.25h9.333v5.25Zm0-6.417H2.334V3.57a.583.583 0 0 1 .583-.583H3.5v.583a.583.583 0 1 0 1.167 0v-.583h4.667v.583a.583.583 0 0 0 1.166 0v-.583h.584a.583.583 0 0 1 .583.583v1.75Zm-7.583 3.5a.583.583 0 1 0 0-1.167.583.583 0 0 0 0 1.167Zm0 2.333a.583.583 0 1 0 0-1.166.583.583 0 0 0 0 1.166Z">
        </path>
    </g>
    <defs>
        <clipPath id="uCalendarAlt_svg__a">
            <path d="M0 .07h14v14H0z"></path>
        </clipPath>
    </defs>
</svg>