<svg xmlns="http://www.w3.org/2000/svg" fill="none" viewBox="0 0 28 28" class="shrink-0" style="width:27.96;height:27.96"><circle cx="24.464" cy="24.485" r="3.495" fill="#2E2E2E"></circle><rect width="5.825" height="23.301" y="0.02" fill="#2E2E2E" rx="2.913"></rect><rect width="5.825" height="23.301" x="12.816" y="4.68" fill="#2E2E2E" rx="2.913"></rect><path fill="#2E2E2E" d="M5.828 8.175v1.517c0 .848.502 1.615 1.278 1.956a5.34 5.34 0 0 0 4.115.073l.244-.096a2.145 2.145 0 0 0 1.353-1.994v8.738c0-.88-.536-1.67-1.353-1.994l-.244-.096a5.34 5.34 0 0 0-4.115.073 2.136 2.136 0 0 0-1.278 1.956v1.517-11.65Z"></path></svg>