<svg xmlns="http://www.w3.org/2000/svg" fill="black" viewBox="0 0 14 15" class="transition-colors duration-300 fill-[#2E2E2E] st-current" width="14" height="14" data-label="svg.transition-colors"><path d="M5.804 2.802a.583.583 0 0 1-.37.738c-.22.074-.374.235-.499.548-.134.335-.199.754-.275 1.248l-.003.023c-.054.35-.117.761-.243 1.128h.836a.583.583 0 0 1 0 1.166h-.836c.126.367.189.778.243 1.128l.003.023c.076.494.141.913.275 1.249.125.313.28.474.5.547a.583.583 0 1 1-.37 1.107c-.654-.218-1.01-.714-1.213-1.221-.185-.463-.268-1-.335-1.442l-.01-.062c-.077-.5-.14-.859-.258-1.1a.452.452 0 0 0-.135-.182c-.028-.02-.081-.047-.197-.047H1.751a.584.584 0 0 1 0-1.166h1.166c.116 0 .169-.027.197-.047a.452.452 0 0 0 .135-.181c.118-.242.181-.6.258-1.1l.01-.062c.067-.443.15-.98.335-1.443.203-.507.56-1.002 1.214-1.22a.583.583 0 0 1 .738.368zM7 2.987c0-.322.261-.584.584-.584h4.666a.583.583 0 1 1 0 1.167H7.584A.583.583 0 0 1 7 2.987zM7 7.07c0-.322.261-.583.584-.583h4.666a.583.583 0 1 1 0 1.166H7.584A.583.583 0 0 1 7 7.07zm0 4.083c0-.322.261-.583.584-.583h4.666a.583.583 0 0 1 0 1.167H7.584A.583.583 0 0 1 7 11.153z" clip-rule="evenodd" class=""></path></svg>