<svg xmlns="http://www.w3.org/2000/svg" fill="none" viewBox="0 0 120 121" class="w-[120px] h-[120px] shrink-0"><path fill="url(#offlineAccess_svg__a)" d="M63.66 13.218c22.251 7.935 37.792 62.865 26.67 79.987-11.122 17.122-70.502-.364-80.767-14.935C-.702 63.7 41.409 5.28 63.659 13.218Z" opacity="0.15"></path><path fill="url(#offlineAccess_svg__b)" d="M39.072 23.236C59.619 18.349 98.02 51.962 98.02 70.214c0 18.253-53.033 34.061-67.825 28.137-14.791-5.924-11.67-70.227 8.877-75.115Z"></path><path fill="#fff" d="M70.999 68.089h-1.667V56.422a5 5 0 0 0-5-5H47.665a5 5 0 0 0-5 5V68.09H41a1.666 1.666 0 0 0-1.667 1.667v3.333a5 5 0 0 0 5 5h23.333a5 5 0 0 0 5-5v-3.333A1.666 1.666 0 0 0 71 68.089Zm-25-11.667a1.666 1.666 0 0 1 1.666-1.666h16.667a1.666 1.666 0 0 1 1.667 1.666V68.09h-20V56.422ZM69.332 73.09a1.667 1.667 0 0 1-1.667 1.667H44.332a1.667 1.667 0 0 1-1.667-1.667v-1.667h26.667v1.667Z"></path><defs><linearGradient id="offlineAccess_svg__a" x1="83.124" x2="36.29" y1="25.221" y2="97.32" gradientUnits="userSpaceOnUse"><stop stop-color="#0720A4"></stop><stop offset="1" stop-color="#2229D2"></stop></linearGradient><linearGradient id="offlineAccess_svg__b" x1="59.51" x2="59.51" y1="99.616" y2="-7.988" gradientUnits="userSpaceOnUse"><stop stop-color="#0046B6"></stop><stop offset="1" stop-color="#51A2FF"></stop></linearGradient></defs></svg>