<svg xmlns="http://www.w3.org/2000/svg" fill="black" viewBox="0 0 14 15" class="transition-colors duration-300 fill-white" width="14" height="14"><g clip-path="url(#pdf_svg__a)"><path d="M6.547 4.866c.064-.259.13-.388.13-.583v-.13c.064-.324.064-.583 0-.648v-.064l-.066-.065s0 .065-.064.065c-.13.388-.13.842 0 1.425zM4.602 9.34c-.13.064-.26.13-.324.194-.454.389-.778.843-.842 1.037.388-.065.777-.454 1.166-1.231zm5.963-.973c-.065-.064-.324-.259-1.231-.259h-.13v.065c.454.194.907.324 1.231.324h.195v-.065s-.065 0-.065-.065zm.972-7.13H2.463a1.3 1.3 0 0 0-1.296 1.297v9.074a1.3 1.3 0 0 0 1.296 1.296h9.074a1.3 1.3 0 0 0 1.297-1.296V2.533a1.3 1.3 0 0 0-1.297-1.296zm-.713 7.649c-.13.065-.324.13-.583.13-.518 0-1.296-.13-1.944-.454-1.102.13-1.945.26-2.593.518-.065 0-.065 0-.13.065-.777 1.361-1.426 2.01-1.944 2.01-.13 0-.194 0-.26-.065l-.323-.195v-.065c-.065-.13-.065-.194-.065-.324.065-.324.454-.907 1.231-1.36.13-.066.324-.195.584-.325.194-.324.389-.713.648-1.167.324-.648.518-1.296.713-1.88-.26-.777-.39-1.23-.13-2.138.065-.26.26-.519.519-.519h.13c.129 0 .259.065.388.13.454.454.26 1.49 0 2.333v.065c.26.713.648 1.297 1.037 1.685.195.13.324.26.584.39.324 0 .583-.066.842-.066.778 0 1.296.13 1.49.454.066.13.066.26.066.39-.065.064-.13.258-.26.388zM6.611 6.357c-.13.454-.388.972-.648 1.556-.13.259-.259.453-.389.713h.13c.843-.324 1.62-.519 2.139-.584a.895.895 0 0 1-.26-.194c-.323-.389-.712-.907-.972-1.49z" clip-rule="evenodd"></path></g><defs><clipPath id="pdf_svg__a"><path d="M1.167 1.237h11.667v11.667H1.167z"></path></clipPath></defs></svg>