<svg xmlns="http://www.w3.org/2000/svg" fill="black" viewBox="0 0 14 15" class="transition-colors duration-300 fill-[#2E2E2E]" width="14" height="14"><path d="M7 1.82a5.833 5.833 0 0 0-5.833 5.833v4.084a.583.583 0 0 0 .583.583H3.5a1.75 1.75 0 0 0 1.75-1.75V9.403a1.75 1.75 0 0 0-1.75-1.75H2.334a4.667 4.667 0 1 1 9.333 0H10.5a1.75 1.75 0 0 0-1.75 1.75v1.167a1.75 1.75 0 0 0 1.75 1.75h1.75a.583.583 0 0 0 .584-.583V7.653A5.833 5.833 0 0 0 7 1.82zm-3.5 7a.583.583 0 0 1 .584.583v1.167a.583.583 0 0 1-.584.583H2.334V8.82H3.5zm8.167 2.333H10.5a.583.583 0 0 1-.583-.583V9.403a.583.583 0 0 1 .583-.583h1.167v2.333z"></path></svg>