<svg xmlns="http://www.w3.org/2000/svg" fill="none" viewBox="0 0 120 121" class="w-[120px] h-[120px] shrink-0"><path fill="url(#syncRealTime_svg__a)" d="M63.66 13.218c22.251 7.935 37.792 62.865 26.67 79.987-11.122 17.122-70.502-.364-80.767-14.935C-.702 63.7 41.409 5.28 63.659 13.218Z" opacity="0.15"></path><path fill="url(#syncRealTime_svg__b)" d="M39.072 23.236C59.619 18.349 98.02 51.962 98.02 70.214c0 18.253-53.033 34.061-67.825 28.137-14.791-5.924-11.67-70.227 8.877-75.115Z"></path><path fill="#fff" d="M69.182 70.606h-7.55a1.667 1.667 0 0 0 0 3.333h4a13.334 13.334 0 0 1-22.967-9.183 1.667 1.667 0 0 0-3.333 0 16.667 16.667 0 0 0 28.133 12.05v2.95a1.667 1.667 0 1 0 3.334 0v-7.5a1.667 1.667 0 0 0-1.617-1.65ZM55.999 48.089a16.666 16.666 0 0 0-11.467 4.617v-2.95a1.667 1.667 0 0 0-3.333 0v7.5a1.666 1.666 0 0 0 1.666 1.667h7.5a1.667 1.667 0 0 0 0-3.334h-4a13.333 13.333 0 0 1 22.967 9.167 1.666 1.666 0 1 0 3.333 0A16.666 16.666 0 0 0 56 48.089Z"></path><defs><linearGradient id="syncRealTime_svg__a" x1="83.124" x2="36.29" y1="25.221" y2="97.32" gradientUnits="userSpaceOnUse"><stop stop-color="#33C8C1"></stop><stop offset="1" stop-color="#119BD2"></stop></linearGradient><linearGradient id="syncRealTime_svg__b" x1="59.51" x2="59.51" y1="99.616" y2="-7.988" gradientUnits="userSpaceOnUse"><stop stop-color="#348F50"></stop><stop offset="1" stop-color="#56B4D3"></stop></linearGradient></defs></svg>