<svg xmlns="http://www.w3.org/2000/svg" fill="black" viewBox="0 0 14 15" class="transition-colors duration-300 fill-[#2E2E2E] st-current" width="14" height="14" data-label="svg.transition-colors"><path d="M12.25 1.237H1.75a.583.583 0 0 0-.583.583v10.5a.583.583 0 0 0 .583.583h10.5a.583.583 0 0 0 .584-.583V1.82a.583.583 0 0 0-.584-.583zm-5.833 10.5H2.334V9.403h4.083v2.334zm0-3.5H2.334V5.903h4.083v2.334zm5.25 3.5H7.584V9.403h4.083v2.334zm0-3.5H7.584V5.903h4.083v2.334zm0-3.5H2.334V2.403h9.333v2.334z" class=""></path></svg>