<svg xmlns="http://www.w3.org/2000/svg" fill="black" viewBox="0 0 14 14" class="transition-colors duration-300 fill-white" width="14" height="14" data-label="svg.transition-colors"><path d="m12.437 3.016-3.5-1.166h-.04a.408.408 0 0 0-.083 0h-.25L5.25 2.987 1.937 1.85a.583.583 0 0 0-.705.288.583.583 0 0 0-.065.266v8.166a.583.583 0 0 0 .397.555l3.5 1.166a.584.584 0 0 0 .361 0l3.325-1.108 3.314 1.137a.694.694 0 0 0 .186 0 .549.549 0 0 0 .339-.11.584.584 0 0 0 .245-.473V3.57a.584.584 0 0 0-.397-.554zm-7.77 7.91-2.333-.776V3.215l2.333.775v6.936zm3.5-.776-2.333.776V3.99l2.333-.775v6.935zm3.5.776-2.333-.776V3.215l2.333.775v6.936z" class="st-current" data-label="path"></path></svg>